HIERARCHY
ROOT Hips
{
	OFFSET 0.000000 0.000000 0.000000
	CHANNELS 6 Xposition Yposition Zposition Zrotation Yrotation Xrotation 
	JOINT LHipJoint
	{
		OFFSET 0.000000 0.000000 0.000000
		CHANNELS 3 Zrotation Yrotation Xrotation
		JOINT LeftUpLeg
		{
			OFFSET 1.363060 -1.794630 0.839290
			CHANNELS 3 Zrotation Yrotation Xrotation
			JOINT LeftLeg
			{
				OFFSET 2.448110 -6.726130 0.000000
				CHANNELS 3 Zrotation Yrotation Xrotation
				JOINT LeftFoot
				{
					OFFSET 2.562200 -7.039590 0.000000
					CHANNELS 3 Zrotation Yrotation Xrotation
					JOINT LeftToeBase
					{
						OFFSET 0.157640 -0.433110 2.322550
						CHANNELS 3 Zrotation Yrotation Xrotation
						End Site
						{
							OFFSET 0.000000 0.000000 0.000000
						}
					}
				}
			}
		}
	}
	JOINT RHipJoint
	{
		OFFSET 0.000000 0.000000 0.000000
		CHANNELS 3 Zrotation Yrotation Xrotation
		JOINT RightUpLeg
		{
			OFFSET -1.305520 -1.794630 0.839290
			CHANNELS 3 Zrotation Yrotation Xrotation
			JOINT RightLeg
			{
				OFFSET -2.542530 -6.985550 0.000000
				CHANNELS 3 Zrotation Yrotation Xrotation
				JOINT RightFoot
				{
					OFFSET -2.568260 -7.056230 0.000000
					CHANNELS 3 Zrotation Yrotation Xrotation
					JOINT RightToeBase
					{
						OFFSET -0.164730 -0.452590 2.363150
						CHANNELS 3 Zrotation Yrotation Xrotation
						End Site
						{
							OFFSET 0.000000 0.000000 0.000000
						}
					}
				}
			}
		}
	}
	JOINT LowerBack
	{
		OFFSET 0.000000 0.000000 0.000000
		CHANNELS 3 Zrotation Yrotation Xrotation
		JOINT Spine
		{
			OFFSET 0.028270 2.035590 -0.193380
			CHANNELS 3 Zrotation Yrotation Xrotation
			JOINT Spine1
			{
				OFFSET 0.056720 2.048850 -0.042750
				CHANNELS 3 Zrotation Yrotation Xrotation
				JOINT Neck
				{
					OFFSET 0.000000 0.000000 0.000000
					CHANNELS 3 Zrotation Yrotation Xrotation
					JOINT Neck1
					{
						OFFSET -0.054170 1.746240 0.172020
						CHANNELS 3 Zrotation Yrotation Xrotation
						JOINT Head
						{
							OFFSET 0.104070 1.761360 -0.123970
							CHANNELS 3 Zrotation Yrotation Xrotation
							End Site
							{
								OFFSET 0.000000 0.000000 0.000000
							}
						}
					}
				}
				JOINT LeftShoulder
				{
					OFFSET 0.000000 0.000000 0.000000
					CHANNELS 3 Zrotation Yrotation Xrotation
					JOINT LeftArm
					{
						OFFSET 3.362410 1.200890 -0.311210
						CHANNELS 3 Zrotation Yrotation Xrotation
						JOINT LeftForeArm
						{
							OFFSET 4.983000 -0.000000 -0.000000
							CHANNELS 3 Zrotation Yrotation Xrotation
							JOINT LeftHand
							{
								OFFSET 3.483560 -0.000000 -0.000000
								CHANNELS 3 Zrotation Yrotation Xrotation
								JOINT LeftFingerBase
								{
									OFFSET 0.000000 0.000000 0.000000
									CHANNELS 3 Zrotation Yrotation Xrotation
									JOINT LeftHandIndex1
									{
										OFFSET 0.715260 -0.000000 -0.000000
										CHANNELS 3 Zrotation Yrotation Xrotation
										End Site
										{
											OFFSET 0.000000 0.000000 0.000000
										}
									}
								}
								JOINT LThumb
								{
									OFFSET 0.000000 0.000000 0.000000
									CHANNELS 3 Zrotation Yrotation Xrotation
									End Site
									{
										OFFSET 0.000000 0.000000 0.000000
									}
								}
							}
						}
					}
				}
				JOINT RightShoulder
				{
					OFFSET 0.000000 0.000000 0.000000
					CHANNELS 3 Zrotation Yrotation Xrotation
					JOINT RightArm
					{
						OFFSET -3.136600 1.374050 -0.404650
						CHANNELS 3 Zrotation Yrotation Xrotation
						JOINT RightForeArm
						{
							OFFSET -5.241900 -0.000000 -0.000000
							CHANNELS 3 Zrotation Yrotation Xrotation
							JOINT RightHand
							{
								OFFSET -3.444170 -0.000000 -0.000000
								CHANNELS 3 Zrotation Yrotation Xrotation
								JOINT RightFingerBase
								{
									OFFSET 0.000000 0.000000 0.000000
									CHANNELS 3 Zrotation Yrotation Xrotation
									JOINT RightHandIndex1
									{
										OFFSET -0.622530 -0.000000 -0.000000
										CHANNELS 3 Zrotation Yrotation Xrotation
										End Site
										{
											OFFSET 0.000000 0.000000 0.000000
										}
									}
								}
								JOINT RThumb
								{
									OFFSET 0.000000 0.000000 0.000000
									CHANNELS 3 Zrotation Yrotation Xrotation
									End Site
									{
										OFFSET 0.000000 0.000000 0.000000
									}
								}
							}
						}
					}
				}
			}
		}
	}
}
MOTION
Frames: 12
Frame Time: 0.008333
5.813538 17.883189 -8.472804 2.450782 -40.682751 -1.067220 -2.908102 1.307305 2.447657 -14.024651 -1.594522 -13.025143 2.465890 11.349009 34.625574 0.339108 -1.617767 -3.454939 0.664700 -5.214200 -14.520600 0.854425 -1.191595 1.289786 23.026369 0.280112 -8.472751 -1.800974 -8.797731 26.879967 -1.409448 5.261963 -6.141900 -0.354500 -3.825000 10.584800 1.966408 0.148168 6.217138 1.586647 0.481131 0.396046 -1.137107 0.144613 -4.383118 -12.922213 -5.562298 -17.359757 6.337781 -5.165152 18.991665 4.556700 -3.109600 14.041700 -6.726991 -0.793977 -1.597569 -84.929757 1.562208 24.801330 13.594047 -18.987331 -2.696506 -1.348924 -2.471682 3.916574 18.366344 22.929290 8.678400 -7.125000 0.000000 0.000000 -11.100200 56.424000 -3.136300 5.193041 1.522604 -1.244080 84.362829 -8.219197 9.930716 -17.104229 25.257008 -4.110230 0.281304 -0.096529 5.591389 -12.348212 7.763990 -1.748600 7.125000 0.000000 0.000000 10.299300 -22.005400 5.781600 
5.804917 17.881485 -8.474609 2.462600 -40.740249 -1.236496 -2.878089 1.293573 2.412932 -13.998384 -1.573674 -13.261499 2.614113 11.538025 35.264636 0.323855 -1.563605 -3.370130 0.684300 -5.288800 -14.734100 0.849268 -1.196191 1.299749 23.043710 0.129724 -8.266210 -1.784508 -8.754973 26.762962 -1.421439 5.345164 -6.105120 -0.346000 -3.779700 10.457800 1.915428 0.188233 6.468033 1.606966 0.533273 0.440461 -1.082056 0.176350 -4.427361 -12.734109 -5.507083 -17.612452 5.997273 -5.093349 19.216379 4.383400 -3.104200 14.175600 -6.715075 -0.822235 -1.598618 -84.962943 1.537636 24.915517 13.655178 -19.075664 -2.724336 -1.336131 -2.475168 3.790054 18.309232 22.908405 8.641700 -7.125000 0.000000 0.000000 -11.158000 56.390500 -3.143800 5.206329 1.500602 -1.253711 84.280236 -8.194817 9.801487 -17.025935 25.157186 -4.074561 0.273096 -0.110739 5.949739 -12.203781 8.072612 -1.797700 7.125000 0.000000 0.000000 10.391400 -21.686700 5.911700 
5.796496 17.879981 -8.474408 2.354103 -40.888597 -1.254679 -2.843921 1.274406 2.375084 -13.872595 -1.446313 -13.614105 2.758727 11.718809 35.872268 0.320463 -1.577463 -3.280743 0.827100 -5.802200 -16.211700 0.843865 -1.199840 1.308581 23.150453 0.096563 -8.054028 -1.757169 -8.692103 26.585043 -1.437554 5.466056 -6.039103 -0.357400 -3.840800 10.629200 1.999616 0.258038 6.608552 1.628631 0.633434 0.473772 -1.111014 0.232792 -4.423779 -12.381204 -5.398382 -17.891003 5.448798 -4.991901 19.587307 4.093900 -3.100400 14.363400 -6.697809 -0.865822 -1.597766 -84.947443 1.533782 24.999994 13.691733 -19.133286 -2.741665 -1.333375 -2.474646 3.677145 18.355260 22.864641 8.649900 -7.125000 0.000000 0.000000 -11.084800 56.353600 -3.112900 5.223080 1.457429 -1.272336 84.203628 -8.183874 9.793087 -16.969503 25.083182 -4.047809 0.273201 -0.117594 6.078685 -12.240469 8.203996 -1.833500 7.125000 0.000000 0.000000 10.357400 -21.547000 5.925100 
5.785870 17.881084 -8.472002 2.218621 -41.113395 -1.259155 -2.806877 1.259418 2.340357 -13.732694 -1.248490 -13.984481 2.902638 11.893979 36.463986 0.343671 -1.775256 -3.174614 0.898600 -6.041400 -16.904700 0.838332 -1.198633 1.312774 23.293913 0.148021 -7.782980 -1.728868 -8.626260 26.401820 -1.447753 5.556178 -5.974337 -0.359300 -3.850900 10.657500 2.105357 0.345792 6.683483 1.636266 0.762531 0.527784 -1.169413 0.296531 -4.368564 -12.406690 -5.429000 -17.807868 5.501417 -5.050360 19.632819 4.115700 -3.124300 14.372000 -6.697532 -0.860646 -1.593425 -84.924156 1.502198 24.971461 13.705759 -19.153262 -2.747486 -1.333686 -2.467464 3.743339 18.349256 22.807148 8.626300 -7.125000 0.000000 0.000000 -11.063000 56.288700 -3.089200 5.224133 1.462292 -1.265450 84.208791 -8.170260 9.802366 -16.960008 25.063619 -4.039621 0.287402 -0.108281 5.979294 -12.586570 7.913901 -1.819700 7.125000 0.000000 0.000000 10.113800 -21.836500 5.713700 
5.776848 17.879480 -8.469095 2.080382 -41.289336 -1.342597 -2.771251 1.254889 2.313578 -13.599989 -1.155269 -14.237480 3.038367 12.054539 37.015531 0.378682 -2.075278 -3.029337 0.869800 -5.946400 -16.629000 0.834447 -1.197628 1.317911 23.447725 0.083457 -7.453102 -1.697137 -8.552016 26.195535 -1.444771 5.556980 -5.948652 -0.341400 -3.754800 10.387900 2.211313 0.408518 6.896138 1.628880 0.867082 0.566775 -1.238382 0.342434 -4.433932 -12.706785 -5.515842 -17.441405 6.042901 -5.173926 19.481933 4.397500 -3.143200 14.265500 -6.701613 -0.815678 -1.594705 -84.854865 1.584202 25.099664 13.765600 -19.246316 -2.775128 -1.345893 -2.465850 3.704231 18.553215 22.814205 8.730400 -7.125000 0.000000 0.000000 -10.836700 56.338200 -3.038000 5.212476 1.506398 -1.241356 84.286951 -8.186775 9.660264 -16.919103 25.000071 -4.016154 0.302113 -0.101322 5.935980 -12.962717 7.652498 -1.813700 7.125000 0.000000 0.000000 9.845200 -22.094700 5.498700 
5.768628 17.878578 -8.465487 1.911107 -41.441115 -1.403871 -2.734830 1.248847 2.285104 -13.438819 -1.081358 -14.505882 3.162466 12.198589 37.512242 0.407258 -2.378663 -2.724059 0.840200 -5.847000 -16.341200 0.830645 -1.197866 1.324427 23.612923 0.075769 -7.088583 -1.663268 -8.473655 25.977583 -1.436251 5.544684 -5.875089 -0.344000 -3.768500 10.426200 2.374781 0.460029 7.125702 1.614413 0.962207 0.599449 -1.356509 0.385518 -4.510201 -12.839040 -5.539441 -17.176562 6.364574 -5.230450 19.365463 4.559700 -3.143000 14.175400 -6.699342 -0.788954 -1.595944 -84.741593 1.665292 25.317654 13.834827 -19.356545 -2.808129 -1.355718 -2.472353 3.578453 18.769158 22.892465 8.865600 -7.125000 0.000000 0.000000 -10.633000 56.468300 -3.013600 5.205553 1.533626 -1.226555 84.400194 -8.191997 9.455855 -16.852527 24.910124 -3.984453 0.303899 -0.102855 5.943281 -13.010974 7.650346 -1.820600 7.125000 0.000000 0.000000 9.809000 -22.093900 5.478000 
5.758002 17.884492 -8.459271 1.801151 -41.608497 -1.450328 -2.704820 1.234761 2.252554 -13.329395 -1.013784 -14.807029 3.268575 12.320574 37.935345 0.433492 -2.689358 -2.355201 0.814600 -5.759400 -16.087800 0.826576 -1.197762 1.331199 23.705043 0.065619 -6.820951 -1.643883 -8.421963 25.838488 -1.454537 5.680827 -5.809086 -0.376700 -3.941700 10.912600 2.500270 0.528170 7.249207 1.612399 1.068961 0.639086 -1.440672 0.439070 -4.505471 -12.832205 -5.532919 -17.097188 6.340771 -5.233425 19.355273 4.549600 -3.148200 14.149300 -6.696431 -0.787581 -1.594097 -84.698322 1.688018 25.380153 13.871102 -19.411895 -2.825538 -1.329866 -2.489273 3.576003 18.492832 23.059430 8.780200 -7.125000 0.000000 0.000000 -11.040400 56.590500 -3.163800 5.208530 1.533068 -1.222890 84.465520 -8.152491 9.267244 -16.774924 24.808913 -3.948925 0.301214 -0.108135 6.103003 -12.962587 7.737695 -1.835000 7.125000 0.000000 0.000000 9.840900 -22.002500 5.517200 
5.747978 17.889203 -8.455462 1.834592 -41.715881 -1.536127 -2.685005 1.211962 2.215484 -13.333263 -1.030225 -15.122806 3.353031 12.419210 38.279209 0.447989 -2.931455 -1.963333 0.826400 -5.800100 -16.205500 0.825843 -1.196541 1.341157 23.681352 0.015563 -6.700234 -1.642006 -8.406539 25.805276 -1.479225 5.831209 -5.794161 -0.397500 -4.047900 11.211500 2.481871 0.559887 7.345799 1.610901 1.109645 0.653825 -1.437833 0.463362 -4.528982 -12.804119 -5.485597 -17.024138 6.218211 -5.177844 19.404867 4.500600 -3.141300 14.139700 -6.692542 -0.792676 -1.594037 -84.692952 1.746192 25.490041 13.890774 -19.444169 -2.835916 -1.313215 -2.508896 3.457086 18.355007 23.227104 8.766400 -7.125000 0.000000 0.000000 -11.289100 56.744200 -3.278500 5.213621 1.523576 -1.223910 84.466188 -8.131144 9.170151 -16.708676 24.719525 -3.918048 0.299264 -0.110951 6.274175 -12.930292 7.755724 -1.834900 7.125000 0.000000 0.000000 9.864300 -21.983400 5.535100 
5.740861 17.886096 -8.456465 2.016118 -41.710726 -1.706350 -2.670378 1.181828 2.174670 -13.434440 -1.047937 -15.498134 3.414612 12.492289 38.534892 0.457268 -3.199736 -1.359537 0.970900 -6.273100 -17.579000 0.829794 -1.193925 1.354586 23.552108 -0.006149 -6.637508 -1.645606 -8.408069 25.818391 -1.481249 5.812518 -5.868187 -0.393900 -4.029600 11.160100 2.336063 0.547273 7.510582 1.598323 1.079871 0.640261 -1.378701 0.454279 -4.642962 -12.834968 -5.410143 -16.901869 6.165438 -5.081647 19.519364 4.501600 -3.119600 14.151500 -6.686758 -0.791065 -1.599447 -84.741100 1.881632 25.551087 13.939555 -19.520253 -2.858420 -1.322930 -2.523627 3.298084 18.558975 23.358518 8.916400 -7.125000 0.000000 0.000000 -11.127400 56.933000 -3.281700 5.212694 1.519635 -1.225494 84.397466 -8.208394 9.324249 -16.695665 24.695372 -3.910413 0.302467 -0.107972 6.168815 -12.995071 7.670736 -1.824000 7.125000 0.000000 0.000000 9.819800 -22.069600 5.489700 
5.733643 17.874869 -8.453758 2.051265 -41.785029 -1.813805 -2.651489 1.158785 2.137796 -13.422621 -1.040537 -15.840547 3.462465 12.550642 38.730740 0.444265 -3.299524 -0.644639 1.089500 -6.633700 -18.634500 0.829973 -1.191988 1.363922 23.544179 0.030559 -6.498335 -1.646800 -8.403872 25.817816 -1.478798 5.790421 -5.897686 -0.395400 -4.037400 11.181900 2.312051 0.567439 7.668060 1.589048 1.106552 0.651520 -1.387988 0.471631 -4.699305 -12.741933 -5.331438 -16.936563 6.084189 -5.007344 19.744355 4.466100 -3.096900 14.248100 -6.678364 -0.796900 -1.602472 -84.724377 1.951879 25.637080 13.988017 -19.597363 -2.881305 -1.322292 -2.549877 3.111866 18.648273 23.614403 9.050100 -7.125000 0.000000 0.000000 -11.165300 57.231500 -3.373800 5.214034 1.511924 -1.230278 84.384201 -8.261330 9.441798 -16.707406 24.706300 -3.915065 0.304798 -0.099705 5.987171 -13.010151 7.476195 -1.779000 7.125000 0.000000 0.000000 9.817700 -22.273400 5.442300 
5.723920 17.871861 -8.444435 1.910500 -41.937631 -1.837155 -2.635580 1.146378 2.110418 -13.295423 -1.061733 -16.059892 3.495123 12.592688 38.861401 0.424726 -3.261528 -0.143675 1.105800 -6.681300 -18.774500 0.824587 -1.192261 1.367922 23.664694 -0.027532 -6.325453 -1.643623 -8.386356 25.778446 -1.495700 5.886211 -5.924710 -0.376500 -3.941000 10.910700 2.414537 0.606100 7.770562 1.629887 1.169966 0.699006 -1.377093 0.504902 -4.659191 -12.670164 -5.242341 -17.082284 5.934652 -4.888140 20.017878 4.411600 -3.066500 14.384400 -6.671394 -0.810018 -1.602515 -84.771856 1.954173 25.632470 14.023901 -19.648070 -2.897358 -1.307782 -2.555526 3.003705 18.549570 23.615927 8.999000 -7.125000 0.000000 0.000000 -11.283100 57.213600 -3.405100 5.226433 1.495871 -1.233202 84.303598 -8.175537 9.361633 -16.626048 24.599159 -3.878344 0.299144 -0.100771 6.047885 -12.845289 7.487213 -1.758400 7.125000 0.000000 0.000000 9.940500 -22.266600 5.513900 
5.711088 17.876873 -8.433208 1.771110 -42.104786 -1.826171 -2.623962 1.133188 2.086648 -13.174456 -1.058164 -16.277660 3.521273 12.627354 38.966191 0.442420 -3.437699 0.045349 1.154800 -6.822800 -19.191400 0.819606 -1.192603 1.372607 23.766696 -0.189128 -6.173655 -1.629736 -8.344041 25.664319 -1.527439 6.089494 -5.895089 -0.367600 -3.894400 10.779600 2.491005 0.632837 7.798071 1.691619 1.212925 0.734271 -1.306381 0.526768 -4.616018 -12.809641 -5.168793 -16.988677 5.920299 -4.757241 20.164079 4.457600 -3.040000 14.414500 -6.670721 -0.807800 -1.601920 -84.900960 1.995545 25.382340 14.034858 -19.658939 -2.899440 -1.315391 -2.542660 3.143255 18.595452 23.492196 8.980500 -7.125000 0.000000 0.000000 -11.165000 57.090400 -3.335500 5.237085 1.488430 -1.228813 84.188842 -8.124004 9.240462 -16.529223 24.476177 -3.836314 0.287133 -0.112073 6.293495 -12.562597 7.759808 -1.782100 7.125000 0.000000 0.000000 10.138200 -21.990300 5.691800 
